# xmcd
#
# Track frame offsets: 
#        150
#        15732
#        33725
#        50039
#        68892
#        84328
#        101933
#        122470
#        138181
#        158797
#        177749
#        210973
#        230070
#        248594
#
# Disc length: 3698 seconds
#
# Revision: 0
# Processed by: cddbd v1.5.2PL0 Copyright (c) Steve Scherf et al.
# Submitted via: ExactAudioCopy v0.90b4
#
DISCID=bf0e700e
DTITLE=Kewdy - Vagabundo
DYEAR=2007
DGENRE=Latin
TTITLE0=No Me Culpe De Nada
TTITLE1=Historia De Amor
TTITLE2=No Me Pelo
TTITLE3=El Vagabundo
TTITLE4=Vuelve Pa' Tu Casa
TTITLE5=Me Enamoré
TTITLE6=Que Descaro
TTITLE7=Mejor Pal Perro
TTITLE8=Interés De Amarte
TTITLE9=Ante Muerto Que Tu Amante
TTITLE10=Homenaje A Antony Santos
TTITLE11=Cuatro Rosas
TTITLE12=Gato Malo
TTITLE13=Melo Lambe
EXTD=
EXTT0=
EXTT1=
EXTT2=
EXTT3=
EXTT4=
EXTT5=
EXTT6=
EXTT7=
EXTT8=
EXTT9=
EXTT10=
EXTT11=
EXTT12=
EXTT13=
PLAYORDER=
